# xmcd
#
# Track frame offsets: 
#        150
#        13586
#        25562
#        37707
#        51442
#        62957
#        76881
#        88618
#        99158
#        111629
#        125435
#        138751
#        152294
#        164606
#        177060
#        188074
#        202709
#        215017
#        227216
#        238726
#
# Disc length: 3366 seconds
#
# Revision: 0
# Processed by: cddbd v1.5.2PL0 Copyright (c) Steve Scherf et al.
# Submitted via: ExactAudioCopyFreeDBPlugin 1.0
#
DISCID=fb0d2414
DTITLE=Various Artist - The Bullet Records Story- The First Americana Label (
DTITLE=Disc #3)
DYEAR=2011
DGENRE=Country
TTITLE0=Danny Cassalla - Hawiian War Chant (Instrumental)
TTITLE1=The Five Bars - I'm All Dressed Up With A Broken Heart
TTITLE2=Bob Troup - Bye Bye Blackbird 
TTITLE3=Bob Troup - Heidi 
TTITLE4=Madge Suttee and Her Swing Trio - Avalon (Instrumental)
TTITLE5=Pepper Neely and The Ace Trio - Everything Reminds Me Of You 
TTITLE6=John Gordy - Raggin' The Blues (Instrumental)
TTITLE7=John Gordy - Frankie and Johnnie
TTITLE8=Cecil Gant - I Wonder
TTITLE9=Cecil Gant - Boogie Woogie Baby
TTITLE10=Red Miller Trio - Nobility Boogie (Instrumental)
TTITLE11=Red Miller Trio - Bewildered 
TTITLE12=Big Three Trio - Signifying Monkey
TTITLE13=Rudy Greene Trio - Deep In My Heart
TTITLE14=Vicki Zimmer - Take Another Guess
TTITLE15=Vicki Zimmer - He's A Bad Man But He Treats Me Good
TTITLE16=Chuck Merrill - Rag Mop 
TTITLE17=Tuff Green And His Orchestra - Let's Go To The Liquor Store
TTITLE18=The Fairfield Four - Amazing Grace
TTITLE19=Speer Family - Dig A Little Deeper
EXTD=
EXTT0=
EXTT1=
EXTT2=
EXTT3=
EXTT4=
EXTT5=
EXTT6=
EXTT7=
EXTT8=
EXTT9=
EXTT10=
EXTT11=
EXTT12=
EXTT13=
EXTT14=
EXTT15=
EXTT16=
EXTT17=
EXTT18=
EXTT19=
PLAYORDER=
